<svg width="57" height="57" viewBox="0 0 57 57" fill="none" xmlns="http://www.w3.org/2000/svg">
<path d="M27.075 7.125V9.975C27.075 10.3529 27.2251 10.7154 27.4924 10.9826C27.7596 11.2499 28.1221 11.4 28.5 11.4C28.8779 11.4 29.2404 11.2499 29.5076 10.9826C29.7749 10.7154 29.925 10.3529 29.925 9.975V7.125C29.925 6.74707 29.7749 6.38462 29.5076 6.11738C29.2404 5.85014 28.8779 5.7 28.5 5.7C28.1221 5.7 27.7596 5.85014 27.4924 6.11738C27.2251 6.38462 27.075 6.74707 27.075 7.125ZM28.5 14.25C26.2324 14.25 24.0577 15.1508 22.4543 16.7542C20.8508 18.3577 19.95 20.5324 19.95 22.8C19.95 25.0676 20.8508 27.2423 22.4543 28.8458C24.0577 30.4492 26.2324 31.35 28.5 31.35C30.7676 31.35 32.9423 30.4492 34.5458 28.8458C36.1492 27.2423 37.05 25.0676 37.05 22.8C37.05 20.5324 36.1492 18.3577 34.5458 16.7542C32.9423 15.1508 30.7676 14.25 28.5 14.25ZM22.8 22.8C22.8 21.2883 23.4005 19.8384 24.4695 18.7695C25.5385 17.7005 26.9883 17.1 28.5 17.1C30.0118 17.1 31.4616 17.7005 32.5305 18.7695C33.5995 19.8384 34.2 21.2883 34.2 22.8C34.2 24.3117 33.5995 25.7616 32.5305 26.8305C31.4616 27.8995 30.0118 28.5 28.5 28.5C26.9883 28.5 25.5385 27.8995 24.4695 26.8305C23.4005 25.7616 22.8 24.3117 22.8 22.8ZM17.4819 46.9025C21.0866 46.0145 24.7876 45.577 28.5 45.6C33.2567 45.6 37.1783 46.2526 40.2705 47.1019C43.2345 47.9142 45.4433 48.9088 46.8939 49.6897C47.5827 50.0583 48.2488 50.4675 48.8889 50.9152L48.9744 50.9779L48.9858 50.9893C49.2814 51.2252 49.6585 51.3339 50.0342 51.2917C50.41 51.2495 50.7535 51.0597 50.9894 50.7642C51.2252 50.4687 51.334 50.0915 51.2917 49.7158C51.2495 49.3401 51.0598 48.9965 50.7642 48.7606L50.7585 48.7549L50.7443 48.7464L50.7072 48.7179L50.5733 48.6181C49.826 48.0916 49.0475 47.611 48.242 47.1789C45.9497 45.9699 43.5292 45.0216 41.0258 44.3517C37.697 43.4397 33.5189 42.75 28.5 42.75C23.8802 42.75 19.9728 43.3342 16.7837 44.1408C14.0708 44.8054 11.4459 45.7879 8.96327 47.0677C8.2771 47.4264 7.60936 47.8192 6.96257 48.2448C6.73668 48.394 6.51523 48.5499 6.29852 48.7122L6.25577 48.7464L6.24437 48.7549L6.23867 48.7606C5.94312 48.9965 5.75052 49.3401 5.70829 49.7158C5.66607 50.0915 5.77484 50.4687 6.01067 50.7642C6.2465 51.0597 6.59007 51.2495 6.96581 51.2917C7.34155 51.3339 7.71867 51.2252 8.01422 50.9893L8.03132 50.9751L8.12252 50.9067C8.81635 50.4231 9.53976 49.9833 10.2885 49.59C12.5722 48.4141 14.9867 47.512 17.4819 46.9025ZM27.075 38.475V35.625C27.075 35.2471 27.2251 34.8846 27.4924 34.6174C27.7596 34.3501 28.1221 34.2 28.5 34.2C28.8779 34.2 29.2404 34.3501 29.5076 34.6174C29.7749 34.8846 29.925 35.2471 29.925 35.625V38.475C29.925 38.8529 29.7749 39.2154 29.5076 39.4826C29.2404 39.7499 28.8779 39.9 28.5 39.9C28.1221 39.9 27.7596 39.7499 27.4924 39.4826C27.2251 39.2154 27.075 38.8529 27.075 38.475ZM11.4 24.225C11.4 23.8471 11.5501 23.4846 11.8174 23.2174C12.0846 22.9501 12.4471 22.8 12.825 22.8H15.675C16.0529 22.8 16.4154 22.9501 16.6826 23.2174C16.9499 23.4846 17.1 23.8471 17.1 24.225C17.1 24.6029 16.9499 24.9654 16.6826 25.2326C16.4154 25.4999 16.0529 25.65 15.675 25.65H12.825C12.4471 25.65 12.0846 25.4999 11.8174 25.2326C11.5501 24.9654 11.4 24.6029 11.4 24.225ZM41.325 25.65H44.175C44.5529 25.65 44.9154 25.4999 45.1826 25.2326C45.4499 24.9654 45.6 24.6029 45.6 24.225C45.6 23.8471 45.4499 23.4846 45.1826 23.2174C44.9154 22.9501 44.5529 22.8 44.175 22.8H41.325C40.9471 22.8 40.5846 22.9501 40.3174 23.2174C40.0501 23.4846 39.9 23.8471 39.9 24.225C39.9 24.6029 40.0501 24.9654 40.3174 25.2326C40.5846 25.4999 40.9471 25.65 41.325 25.65ZM19.5339 16.6839C19.4015 16.8166 19.2443 16.9219 19.0712 16.9937C18.898 17.0656 18.7125 17.1025 18.525 17.1025C18.3376 17.1025 18.152 17.0656 17.9789 16.9937C17.8057 16.9219 17.6485 16.8166 17.5161 16.6839L14.6661 13.8339C14.5338 13.7014 14.4289 13.5442 14.3574 13.3711C14.2858 13.1981 14.2491 13.0127 14.2492 12.8254C14.2494 12.6382 14.2864 12.4528 14.3581 12.2799C14.4299 12.1069 14.5351 11.9498 14.6675 11.8175C14.8 11.6852 14.9573 11.5803 15.1303 11.5088C15.3034 11.4373 15.4888 11.4005 15.676 11.4006C15.8633 11.4008 16.0486 11.4378 16.2216 11.5096C16.3945 11.5813 16.5516 11.6865 16.6839 11.819L19.5339 14.669C19.8011 14.9362 19.9511 15.2986 19.9511 15.6764C19.9511 16.0543 19.8011 16.4167 19.5339 16.6839ZM17.5161 31.7661C17.6486 31.6336 17.8059 31.5285 17.979 31.4568C18.1521 31.3851 18.3376 31.3482 18.525 31.3482C18.7124 31.3482 18.8979 31.3851 19.071 31.4568C19.2441 31.5285 19.4014 31.6336 19.5339 31.7661C19.6664 31.8986 19.7715 32.0559 19.8432 32.229C19.9149 32.4021 19.9518 32.5876 19.9518 32.775C19.9518 32.9624 19.9149 33.1479 19.8432 33.321C19.7715 33.4941 19.6664 33.6514 19.5339 33.7839L16.6839 36.6339C16.4167 36.9015 16.0542 37.052 15.676 37.0522C15.2979 37.0525 14.9351 36.9025 14.6675 36.6353C14.4 36.3681 14.2495 36.0056 14.2492 35.6274C14.249 35.2493 14.3989 34.8865 14.6661 34.6189L17.5161 31.769V31.7661ZM37.4661 16.6839C37.5985 16.8166 37.7557 16.9219 37.9289 16.9937C38.102 17.0656 38.2876 17.1025 38.475 17.1025C38.6625 17.1025 38.848 17.0656 39.0212 16.9937C39.1943 16.9219 39.3515 16.8166 39.4839 16.6839L42.3339 13.8339C42.6015 13.5663 42.7518 13.2034 42.7518 12.825C42.7518 12.4466 42.6015 12.0837 42.3339 11.8161C42.0663 11.5485 41.7034 11.3982 41.325 11.3982C40.9466 11.3982 40.5837 11.5485 40.3161 11.8161L37.4661 14.6661C37.3334 14.7985 37.2281 14.9557 37.1563 15.1288C37.0844 15.302 37.0475 15.4876 37.0475 15.675C37.0475 15.8624 37.0844 16.048 37.1563 16.2212C37.2281 16.3943 37.3334 16.5515 37.4661 16.6839ZM39.4839 31.769C39.2167 31.5014 38.8542 31.3509 38.476 31.3506C38.0979 31.3504 37.7351 31.5003 37.4675 31.7675C37.2 32.0347 37.0495 32.3973 37.0492 32.7754C37.049 33.1536 37.1989 33.5163 37.4661 33.7839L40.3161 36.6339C40.5833 36.9015 40.9459 37.052 41.324 37.0522C41.7022 37.0525 42.0649 36.9025 42.3325 36.6353C42.6001 36.3681 42.7505 36.0056 42.7508 35.6274C42.7511 35.2493 42.6011 34.8865 42.3339 34.6189L39.4839 31.769Z" fill="white"/>
</svg>
