<svg width="24" height="24" viewBox="0 0 24 24" fill="none" xmlns="http://www.w3.org/2000/svg">
<g clip-path="url(#clip0_5_171)">
<path d="M22.5 2.24752L16.4948 2.24754V0.752794C16.4948 0.338419 16.1591 0.00279439 15.7448 0.00279439C15.3304 0.00279439 14.9947 0.338419 14.9947 0.752794V2.24717H8.99475V0.752794C8.99475 0.338419 8.65913 0.00279439 8.24475 0.00279439C7.83037 0.00279439 7.49475 0.338419 7.49475 0.752794V2.24717H1.5C0.671625 2.24717 0 2.91879 0 3.74717V22.4972C0 23.3255 0.671625 23.9972 1.5 23.9972H22.5C23.3284 23.9972 24 23.3255 24 22.4972V3.74717C24 2.91915 23.3284 2.24752 22.5 2.24752ZM22.5 22.4972H1.5V3.74717H7.49475V4.50279C7.49475 4.91715 7.83037 5.25279 8.24475 5.25279C8.65913 5.25279 8.99475 4.91715 8.99475 4.50279V3.74754H14.9947V4.50317C14.9947 4.91754 15.3304 5.25317 15.7448 5.25317C16.1591 5.25317 16.4948 4.91754 16.4948 4.50317V3.74754H22.5V22.4972ZM17.25 11.9975H18.75C19.164 11.9975 19.5 11.6615 19.5 11.2475V9.74752C19.5 9.33352 19.164 8.99752 18.75 8.99752H17.25C16.836 8.99752 16.5 9.33352 16.5 9.74752V11.2475C16.5 11.6615 16.836 11.9975 17.25 11.9975ZM17.25 17.9971H18.75C19.164 17.9971 19.5 17.6615 19.5 17.2471V15.7471C19.5 15.3331 19.164 14.9971 18.75 14.9971H17.25C16.836 14.9971 16.5 15.3331 16.5 15.7471V17.2471C16.5 17.6619 16.836 17.9971 17.25 17.9971ZM12.75 14.9971H11.25C10.836 14.9971 10.5 15.3331 10.5 15.7471V17.2471C10.5 17.6615 10.836 17.9971 11.25 17.9971H12.75C13.164 17.9971 13.5 17.6615 13.5 17.2471V15.7471C13.5 15.3335 13.164 14.9971 12.75 14.9971ZM12.75 8.99752H11.25C10.836 8.99752 10.5 9.33352 10.5 9.74752V11.2475C10.5 11.6615 10.836 11.9975 11.25 11.9975H12.75C13.164 11.9975 13.5 11.6615 13.5 11.2475V9.74752C13.5 9.33315 13.164 8.99752 12.75 8.99752ZM6.75 8.99752H5.25C4.836 8.99752 4.5 9.33352 4.5 9.74752V11.2475C4.5 11.6615 4.836 11.9975 5.25 11.9975H6.75C7.164 11.9975 7.5 11.6615 7.5 11.2475V9.74752C7.5 9.33315 7.164 8.99752 6.75 8.99752ZM6.75 14.9971H5.25C4.836 14.9971 4.5 15.3331 4.5 15.7471V17.2471C4.5 17.6615 4.836 17.9971 5.25 17.9971H6.75C7.164 17.9971 7.5 17.6615 7.5 17.2471V15.7471C7.5 15.3335 7.164 14.9971 6.75 14.9971Z" fill="#444444"/>
</g>
<defs>
<clipPath id="clip0_5_171">
<rect width="23.3028" height="23.3028" fill="white" transform="scale(1.02992)"/>
</clipPath>
</defs>
</svg>
