<svg width="26" height="26" viewBox="0 0 26 26" fill="none" xmlns="http://www.w3.org/2000/svg">
<path d="M13 2.16666C10.8574 2.16666 8.76288 2.80202 6.98135 3.9924C5.19982 5.18278 3.81128 6.87472 2.99133 8.85425C2.17138 10.8338 1.95684 13.012 2.37485 15.1135C2.79286 17.2149 3.82463 19.1452 5.3397 20.6603C6.85477 22.1754 8.78509 23.2072 10.8865 23.6252C12.988 24.0432 15.1662 23.8286 17.1458 23.0087C19.1253 22.1887 20.8172 20.8002 22.0076 19.0187C23.198 17.2371 23.8334 15.1426 23.8334 13C23.8334 11.5773 23.5531 10.1686 23.0087 8.85425C22.4643 7.53989 21.6663 6.34563 20.6603 5.33967C19.6544 4.3337 18.4601 3.53572 17.1458 2.99129C15.8314 2.44687 14.4227 2.16666 13 2.16666ZM19.5 11.9167H14.0834L16.0442 9.95582C15.648 9.54931 15.1747 9.22592 14.652 9.00456C14.1293 8.7832 13.5677 8.66832 13 8.66666C12.189 8.66403 11.3934 8.88908 10.7039 9.31621C10.0144 9.74334 9.45866 10.3554 9.09981 11.0828C8.74097 11.8102 8.59347 12.6236 8.67409 13.4307C8.75471 14.2378 9.06022 15.006 9.55586 15.648C10.0515 16.29 10.7174 16.7801 11.4777 17.0624C12.2381 17.3447 13.0624 17.4079 13.8569 17.2449C14.6515 17.0818 15.3843 16.6991 15.9721 16.1402C16.5598 15.5813 16.9789 14.8686 17.1817 14.0833H19.4025C19.1959 15.3055 18.6442 16.4432 17.8123 17.3621C16.9805 18.2811 15.9032 18.943 14.7075 19.2699C13.5118 19.5968 12.2476 19.575 11.064 19.207C9.88029 18.8391 8.8265 18.1403 8.02686 17.1932C7.22721 16.2461 6.71506 15.0901 6.55078 13.8614C6.3865 12.6328 6.57695 11.3829 7.09966 10.2589C7.62238 9.13499 8.45557 8.18394 9.501 7.51794C10.5464 6.85193 11.7605 6.49873 13 6.49999C13.852 6.50106 14.6952 6.67217 15.4803 7.00329C16.2653 7.33442 16.9763 7.81889 17.5717 8.42832L19.5 6.49999V11.9167Z" fill="white"/>
</svg>
