<svg width="52" height="52" viewBox="0 0 52 52" fill="none" xmlns="http://www.w3.org/2000/svg">
<g clip-path="url(#clip0_5_135)">
<path d="M39.8125 43.875C41.1587 43.875 42.25 42.7837 42.25 41.4375C42.25 40.0913 41.1587 39 39.8125 39C38.4663 39 37.375 40.0913 37.375 41.4375C37.375 42.7837 38.4663 43.875 39.8125 43.875Z" fill="white"/>
<path d="M34.9375 50.375C36.2837 50.375 37.375 49.2837 37.375 47.9375C37.375 46.5913 36.2837 45.5 34.9375 45.5C33.5913 45.5 32.5 46.5913 32.5 47.9375C32.5 49.2837 33.5913 50.375 34.9375 50.375Z" fill="white"/>
<path d="M25.7854 49.556L22.9644 47.944L28.0734 39H18.3251L26.2144 25.194L29.0354 26.806L23.9248 35.75H33.6765L25.7854 49.556Z" fill="white"/>
<path d="M14.625 52C14.3481 51.9999 14.0758 51.929 13.834 51.794C13.5922 51.6591 13.3889 51.4647 13.2434 51.2291C13.0979 50.9936 13.0149 50.7247 13.0025 50.4481C12.99 50.1715 13.0484 49.8963 13.1722 49.6486L16.4222 43.1486C16.5135 42.9511 16.6435 42.7738 16.8046 42.6275C16.9656 42.4811 17.1544 42.3686 17.3598 42.2966C17.5652 42.2246 17.7829 42.1946 18.0001 42.2083C18.2173 42.2221 18.4295 42.2793 18.6241 42.3766C18.8188 42.474 18.9919 42.6094 19.1332 42.7749C19.2745 42.9404 19.3812 43.1326 19.4468 43.3401C19.5124 43.5476 19.5357 43.7662 19.5152 43.9828C19.4948 44.1995 19.431 44.4098 19.3277 44.6014L16.0777 51.1014C15.9432 51.3715 15.7359 51.5987 15.4792 51.7575C15.2226 51.9162 14.9267 52.0002 14.625 52ZM40.3 14.846C39.6075 11.5664 37.8089 8.62447 35.2054 6.51328C32.6019 4.40209 29.3519 3.24994 26 3.24994C22.6481 3.24994 19.398 4.40209 16.7946 6.51328C14.1911 8.62447 12.3924 11.5664 11.7 14.846C9.28348 15.3374 7.11545 16.6597 5.57241 18.5832C4.02937 20.5068 3.2088 22.91 3.25322 25.3755C3.29763 27.8411 4.20422 30.2132 5.81554 32.0799C7.42685 33.9466 9.6411 35.1899 12.0737 35.594L9.92221 39.8986C9.81892 40.0902 9.75516 40.3005 9.7347 40.5172C9.71425 40.7338 9.73752 40.9524 9.80314 41.1599C9.86876 41.3674 9.97539 41.5596 10.1167 41.7251C10.258 41.8906 10.4311 42.026 10.6258 42.1234C10.8204 42.2207 11.0327 42.2779 11.2498 42.2917C11.467 42.3054 11.6848 42.2754 11.8901 42.2034C12.0955 42.1314 12.2843 42.0189 12.4454 41.8725C12.6064 41.7262 12.7365 41.5489 12.8277 41.3514L16.0777 34.8514C16.2703 34.4662 16.3021 34.0204 16.1662 33.6119C16.0303 33.2033 15.7378 32.8653 15.353 32.6723C15.1261 32.5634 14.8766 32.5099 14.625 32.5163V32.5H13.8125C11.9204 32.5062 10.0997 31.7782 8.73337 30.4693C7.36709 29.1603 6.56176 27.3725 6.48682 25.4819C6.41187 23.5912 7.07316 21.7453 8.33155 20.3323C9.58994 18.9193 11.3473 18.0495 13.234 17.9059L14.56 17.8019L14.7208 16.4824C15.06 13.7297 16.3941 11.196 18.4718 9.35862C20.5494 7.52126 23.2272 6.50706 26.0008 6.50706C28.7743 6.50706 31.4521 7.52126 33.5298 9.35862C35.6074 11.196 36.9415 13.7297 37.2807 16.4824L37.4416 17.8019L38.766 17.9059C40.6526 18.0495 42.41 18.9193 43.6684 20.3323C44.9268 21.7453 45.5881 23.5912 45.5131 25.4819C45.4382 27.3725 44.6328 29.1603 43.2666 30.4693C41.9003 31.7782 40.0796 32.5062 38.1875 32.5H37.375V35.75H38.1875C40.8057 35.7528 43.3315 34.7826 45.2746 33.0278C47.2177 31.273 48.4395 28.8588 48.7027 26.2539C48.9659 23.649 48.2519 21.0392 46.6991 18.9311C45.1464 16.823 42.8658 15.3671 40.3 14.846Z" fill="white"/>
</g>
<defs>
<clipPath id="clip0_5_135">
<rect width="51.0223" height="51.0223" fill="white" transform="scale(1.01916)"/>
</clipPath>
</defs>
</svg>
