<svg width="45" height="45" viewBox="0 0 45 45" fill="none" xmlns="http://www.w3.org/2000/svg">
<path d="M12.1875 35.625C11.5313 35.625 10.9769 35.3981 10.5244 34.9444C10.0706 34.4919 9.84375 33.9375 9.84375 33.2812C9.84375 32.625 10.0706 32.0706 10.5244 31.6181C10.9769 31.1644 11.5313 30.9375 12.1875 30.9375C12.8438 30.9375 13.3988 31.1644 13.8525 31.6181C14.305 32.0706 14.5313 32.625 14.5313 33.2812C14.5313 33.9375 14.305 34.4919 13.8525 34.9444C13.3988 35.3981 12.8438 35.625 12.1875 35.625ZM17.8125 41.25C17.1563 41.25 16.6019 41.0231 16.1494 40.5694C15.6956 40.1169 15.4688 39.5625 15.4688 38.9062C15.4688 38.25 15.6956 37.6956 16.1494 37.2431C16.6019 36.7894 17.1563 36.5625 17.8125 36.5625C18.4688 36.5625 19.0231 36.7894 19.4756 37.2431C19.9294 37.6956 20.1563 38.25 20.1563 38.9062C20.1563 39.5625 19.9294 40.1169 19.4756 40.5694C19.0231 41.0231 18.4688 41.25 17.8125 41.25ZM23.4375 35.625C22.7813 35.625 22.2269 35.3981 21.7744 34.9444C21.3206 34.4919 21.0938 33.9375 21.0938 33.2812C21.0938 32.625 21.3206 32.0706 21.7744 31.6181C22.2269 31.1644 22.7813 30.9375 23.4375 30.9375C24.0938 30.9375 24.6481 31.1644 25.1006 31.6181C25.5544 32.0706 25.7813 32.625 25.7813 33.2812C25.7813 33.9375 25.5544 34.4919 25.1006 34.9444C24.6481 35.3981 24.0938 35.625 23.4375 35.625ZM34.6875 35.625C34.0313 35.625 33.4769 35.3981 33.0244 34.9444C32.5706 34.4919 32.3438 33.9375 32.3438 33.2812C32.3438 32.625 32.5706 32.0706 33.0244 31.6181C33.4769 31.1644 34.0313 30.9375 34.6875 30.9375C35.3438 30.9375 35.8988 31.1644 36.3525 31.6181C36.805 32.0706 37.0313 32.625 37.0313 33.2812C37.0313 33.9375 36.805 34.4919 36.3525 34.9444C35.8988 35.3981 35.3438 35.625 34.6875 35.625ZM29.0625 41.25C28.4063 41.25 27.8519 41.0231 27.3994 40.5694C26.9456 40.1169 26.7188 39.5625 26.7188 38.9062C26.7188 38.25 26.9456 37.6956 27.3994 37.2431C27.8519 36.7894 28.4063 36.5625 29.0625 36.5625C29.7188 36.5625 30.2738 36.7894 30.7275 37.2431C31.18 37.6956 31.4063 38.25 31.4063 38.9062C31.4063 39.5625 31.18 40.1169 30.7275 40.5694C30.2738 41.0231 29.7188 41.25 29.0625 41.25ZM14.0625 28.125C11.2188 28.125 8.78938 27.1169 6.77438 25.1006C4.75812 23.0856 3.75 20.6562 3.75 17.8125C3.75 15.2188 4.60938 12.9531 6.32813 11.0156C8.04688 9.07812 10.1719 7.9375 12.7031 7.59375C13.7031 5.8125 15.0706 4.41375 16.8056 3.3975C18.5394 2.3825 20.4375 1.875 22.5 1.875C25.3125 1.875 27.7575 2.77375 29.835 4.57125C31.9138 6.3675 33.1719 8.60938 33.6094 11.2969C35.7656 11.4844 37.5781 12.375 39.0469 13.9688C40.5156 15.5625 41.25 17.4688 41.25 19.6875C41.25 22.0312 40.43 24.0238 38.79 25.665C37.1488 27.305 35.1563 28.125 32.8125 28.125H14.0625ZM14.0625 24.375H32.8125C34.125 24.375 35.2344 23.9219 36.1406 23.0156C37.0469 22.1094 37.5 21 37.5 19.6875C37.5 18.375 37.0469 17.2656 36.1406 16.3594C35.2344 15.4531 34.125 15 32.8125 15H30V13.125C30 11.0625 29.2656 9.29688 27.7969 7.82813C26.3281 6.35938 24.5625 5.625 22.5 5.625C21 5.625 19.6325 6.03125 18.3975 6.84375C17.1638 7.65625 16.2344 8.75 15.6094 10.125L15.1406 11.25H13.9688C12.1875 11.3125 10.6644 11.9762 9.39938 13.2413C8.13313 14.5075 7.5 16.0312 7.5 17.8125C7.5 19.625 8.14063 21.1719 9.42188 22.4531C10.7031 23.7344 12.25 24.375 14.0625 24.375Z" fill="white"/>
</svg>
