<svg width="44" height="44" viewBox="0 0 44 44" fill="none" xmlns="http://www.w3.org/2000/svg">
<g clip-path="url(#clip0_5_117)">
<path d="M33.6875 37.125C34.8266 37.125 35.75 36.2016 35.75 35.0625C35.75 33.9234 34.8266 33 33.6875 33C32.5484 33 31.625 33.9234 31.625 35.0625C31.625 36.2016 32.5484 37.125 33.6875 37.125Z" fill="white"/>
<path d="M29.5625 42.625C30.7016 42.625 31.625 41.7016 31.625 40.5625C31.625 39.4234 30.7016 38.5 29.5625 38.5C28.4234 38.5 27.5 39.4234 27.5 40.5625C27.5 41.7016 28.4234 42.625 29.5625 42.625Z" fill="white"/>
<path d="M21.8185 41.932L19.4315 40.568L23.7545 33H15.5059L22.1815 21.318L24.5685 22.682L20.2441 30.25H28.4955L21.8185 41.932Z" fill="white"/>
<path d="M12.375 44C12.1407 43.9999 11.9103 43.9399 11.7057 43.8257C11.5011 43.7116 11.3291 43.547 11.206 43.3477C11.0828 43.1484 11.0126 42.9209 11.0021 42.6869C10.9916 42.4528 11.041 42.22 11.1457 42.0104L13.8957 36.5104C13.973 36.3432 14.083 36.1933 14.2192 36.0694C14.3555 35.9456 14.5153 35.8504 14.6891 35.7894C14.8628 35.7285 15.0471 35.7031 15.2309 35.7147C15.4146 35.7264 15.5942 35.7748 15.7589 35.8572C15.9236 35.9395 16.0701 36.0541 16.1897 36.1941C16.3092 36.3342 16.3995 36.4968 16.455 36.6724C16.5105 36.848 16.5302 37.0329 16.5129 37.2162C16.4956 37.3996 16.4416 37.5775 16.3542 37.7396L13.6042 43.2396C13.4904 43.4682 13.315 43.6604 13.0978 43.7948C12.8807 43.9291 12.6303 44.0002 12.375 44ZM34.1 12.562C33.5141 9.78696 31.9921 7.29763 29.7892 5.51124C27.5862 3.72485 24.8362 2.74995 22 2.74995C19.1638 2.74995 16.4137 3.72485 14.2108 5.51124C12.0078 7.29763 10.4859 9.78696 9.89998 12.562C7.85526 12.9778 6.02078 14.0967 4.71513 15.7243C3.40948 17.3519 2.71515 19.3854 2.75273 21.4716C2.79031 23.5578 3.55743 25.565 4.92085 27.1445C6.28427 28.724 8.15786 29.7761 10.2162 30.118L8.39573 33.7604C8.30833 33.9225 8.25437 34.1004 8.23706 34.2838C8.21976 34.4671 8.23945 34.652 8.29497 34.8276C8.3505 35.0032 8.44072 35.1658 8.5603 35.3059C8.67987 35.4459 8.82636 35.5605 8.99106 35.6428C9.15576 35.7252 9.33533 35.7736 9.51911 35.7853C9.70288 35.7969 9.88712 35.7715 10.0609 35.7106C10.2347 35.6497 10.3944 35.5544 10.5307 35.4306C10.667 35.3068 10.777 35.1568 10.8542 34.9896L13.6042 29.4896C13.7672 29.1637 13.7941 28.7865 13.6791 28.4408C13.5641 28.0951 13.3166 27.8091 12.991 27.6458C12.799 27.5536 12.5879 27.5084 12.375 27.5138V27.5H11.6875C10.0865 27.5052 8.54587 26.8892 7.38979 25.7817C6.2337 24.6741 5.55227 23.1613 5.48885 21.5616C5.42544 19.9618 5.98499 18.3998 7.04978 17.2042C8.11458 16.0087 9.60159 15.2727 11.198 15.1511L12.32 15.0631L12.4561 13.9466C12.7431 11.6174 13.872 9.47352 15.63 7.91883C17.388 6.36415 19.6538 5.50598 22.0007 5.50598C24.3475 5.50598 26.6134 6.36415 28.3714 7.91883C30.1294 9.47352 31.2582 11.6174 31.5452 13.9466L31.6814 15.0631L32.802 15.1511C34.3984 15.2727 35.8854 16.0087 36.9502 17.2042C38.015 18.3998 38.5745 19.9618 38.5111 21.5616C38.4477 23.1613 37.7663 24.6741 36.6102 25.7817C35.4541 26.8892 33.9135 27.5052 32.3125 27.5H31.625V30.25H32.3125C34.5279 30.2523 36.6651 29.4314 38.3093 27.9466C39.9534 26.4618 40.9872 24.419 41.21 22.2148C41.4327 20.0107 40.8285 17.8024 39.5147 16.0186C38.2008 14.2349 36.271 13.003 34.1 12.562Z" fill="white"/>
</g>
<defs>
<clipPath id="clip0_5_117">
<rect width="44" height="44" fill="white"/>
</clipPath>
</defs>
</svg>
